<svg width="153" height="64" viewBox="0 0 153 64" fill="none" xmlns="http://www.w3.org/2000/svg">
<path d="M112.844 19.1854L108.264 21.8293C105.849 19.9703 103.376 19.0967 100.124 19.0967C98.0594 19.0961 96.0226 19.5691 94.17 20.4794C92.3173 21.3897 90.6983 22.713 89.4378 24.3473C88.1773 25.9815 87.3088 27.8834 86.8992 29.9062C86.4895 31.9289 86.5497 34.0185 87.0751 36.0143C87.6005 38.0102 88.5772 39.8588 89.9298 41.4178C91.2824 42.9769 92.9748 44.2048 94.8769 45.0069C96.7789 45.8091 98.8397 46.164 100.9 46.0444C102.961 45.925 104.967 45.3343 106.764 44.3177V45.7161C106.765 45.8094 106.803 45.8984 106.869 45.9638C106.936 46.0292 107.026 46.0657 107.119 46.065H113.042C113.135 46.065 113.225 46.0284 113.291 45.963C113.357 45.8978 113.394 45.8089 113.395 45.7161V19.485C113.395 19.4211 113.377 19.3586 113.344 19.3039C113.31 19.2494 113.263 19.2049 113.206 19.1753C113.15 19.1457 113.086 19.1319 113.022 19.1354C112.958 19.139 112.897 19.1599 112.844 19.1957V19.1854ZM100.124 39.7036C98.7144 39.7039 97.3365 39.2865 96.1645 38.504C94.9924 37.7214 94.0787 36.609 93.5392 35.3074C92.9996 34.0057 92.8581 32.5733 93.1328 31.1914C93.4076 29.8094 94.086 28.5398 95.0825 27.5433C96.0788 26.5469 97.3485 25.8683 98.7307 25.5931C100.113 25.3182 101.546 25.4591 102.848 25.9982C104.15 26.5374 105.263 27.4504 106.046 28.6219C106.829 29.7934 107.247 31.1708 107.247 32.5798C107.247 34.4688 106.497 36.2804 105.161 37.6164C103.825 38.9521 102.013 39.703 100.124 39.7036Z" fill="#210F60"/>
<path d="M31.7391 9.834C27.8652 9.8209 24.0891 11.0438 20.9651 13.3231C17.8412 15.6025 15.534 18.8182 14.3822 22.4983C14.3667 22.5485 14.3633 22.6016 14.3722 22.6534C14.381 22.7052 14.402 22.7541 14.4332 22.7964C14.4645 22.8387 14.5053 22.8732 14.5524 22.897C14.5994 22.9209 14.6514 22.9334 14.7042 22.9336H21.6714C21.7335 22.9342 21.7945 22.9176 21.8477 22.8856C21.9009 22.8538 21.9442 22.8078 21.9727 22.7529C22.9332 20.9563 24.3768 19.4607 26.1423 18.4332C27.9078 17.4057 29.9256 16.8867 31.9704 16.9343C37.8639 17.041 42.4261 21.8636 42.6388 27.4213C42.7328 29.893 41.9804 32.3231 40.5049 34.3139C39.0294 36.3046 36.9184 37.7378 34.5174 38.379C32.1164 39.0202 29.5676 38.8313 27.2888 37.8432C25.0097 36.8551 23.1354 35.1265 21.9727 32.9403C21.9445 32.8859 21.9019 32.8405 21.8495 32.8086C21.7971 32.7766 21.7369 32.7597 21.6755 32.7595H14.7042C14.6514 32.7597 14.5994 32.7722 14.5524 32.7961C14.5053 32.8199 14.4645 32.8544 14.4332 32.8967C14.402 32.939 14.381 32.9879 14.3722 33.0397C14.3633 33.0915 14.3667 33.1446 14.3822 33.1948C15.3753 36.3742 17.2345 39.2174 19.7534 41.4092C22.2724 43.6008 25.3525 45.0552 28.6518 45.6106C31.9512 46.1661 35.3406 45.801 38.4441 44.5559C41.5475 43.3108 44.2434 41.2343 46.2326 38.5572C48.2218 35.88 49.4264 32.7066 49.7126 29.3894C49.9988 26.0724 49.3556 22.7413 47.8543 19.7658C46.3528 16.7904 44.0521 14.2872 41.2074 12.534C38.3627 10.7808 35.0853 9.84619 31.7391 9.834Z" fill="#1DCF9F"/>
<path fill-rule="evenodd" clip-rule="evenodd" d="M21.4178 31.2442H12.8762C12.8286 31.2442 12.7814 31.2345 12.7374 31.216C12.6934 31.1973 12.6534 31.17 12.6198 31.1356C12.5862 31.1013 12.5596 31.0606 12.5416 31.0157C12.5235 30.9709 12.5144 30.9229 12.5147 30.8745V25.0256C12.5144 24.9771 12.5235 24.9291 12.5416 24.8843C12.5596 24.8395 12.5862 24.7988 12.6198 24.7644C12.6534 24.73 12.6934 24.7028 12.7374 24.6841C12.7814 24.6655 12.8286 24.6559 12.8762 24.6559H21.4178C21.4654 24.6559 21.5126 24.6655 21.5566 24.6841C21.6006 24.7028 21.6405 24.73 21.6741 24.7644C21.7078 24.7988 21.7343 24.8395 21.7524 24.8843C21.7704 24.9291 21.7796 24.9771 21.7793 25.0256V30.8745C21.7796 30.9229 21.7704 30.9709 21.7524 31.0157C21.7343 31.0606 21.7078 31.1013 21.6741 31.1356C21.6405 31.17 21.6006 31.1973 21.5566 31.216C21.5126 31.2345 21.4654 31.2442 21.4178 31.2442Z" fill="#210F60"/>
<path d="M83.543 25.0271C83.543 17.9936 77.8983 12.0217 70.888 11.8944H57.7272C57.6393 11.8944 57.5552 11.9292 57.4931 11.9913C57.431 12.0533 57.3961 12.1373 57.3961 12.225V45.5342C57.3961 45.6219 57.431 45.706 57.4931 45.768C57.5552 45.8301 57.6393 45.8649 57.7272 45.8649H63.6639C63.7517 45.8649 63.836 45.8301 63.8981 45.768C63.9602 45.706 63.995 45.6219 63.995 45.5342V38.4248H70.7935C77.8488 38.3487 83.543 33.0484 83.543 25.0353V25.0271ZM70.6474 31.8368H63.9929V18.4884H70.6474C74.1247 18.4884 76.942 21.5688 76.942 25.0333C76.942 29.3458 74.1247 31.8348 70.6474 31.8348" fill="#210F60"/>
<path d="M143.126 19.0967H137.07C136.904 19.0967 136.742 19.1457 136.604 19.2374C136.465 19.3291 136.357 19.4595 136.292 19.6125L129.847 34.5303L123.495 19.6125C123.429 19.4595 123.32 19.3291 123.181 19.2376C123.043 19.1458 122.88 19.0969 122.714 19.0967L116.599 19.1297C116.545 19.1306 116.492 19.1449 116.445 19.1712C116.398 19.1973 116.359 19.2347 116.329 19.28C116.3 19.3253 116.283 19.3771 116.278 19.4306C116.274 19.4843 116.283 19.5384 116.304 19.5878L126.287 43.029L122.148 52.6091C122.126 52.6592 122.118 52.7138 122.122 52.7681C122.127 52.8225 122.145 52.8747 122.176 52.9202C122.206 52.9657 122.246 53.0029 122.295 53.0286C122.343 53.0542 122.396 53.0675 122.451 53.067H128.504C128.671 53.0672 128.833 53.0184 128.972 52.9267C129.111 52.835 129.219 52.7045 129.285 52.5513L143.427 19.5547C143.448 19.5048 143.457 19.4503 143.452 19.3961C143.448 19.3421 143.43 19.2898 143.4 19.2445C143.37 19.1991 143.329 19.1618 143.282 19.136C143.234 19.1102 143.18 19.0967 143.126 19.0967Z" fill="#210F60"/>
</svg>
